<svg width="2506" height="2504" viewBox="0 0 2506 2504" fill="none" xmlns="http://www.w3.org/2000/svg">
<path fill-rule="evenodd" clip-rule="evenodd" d="M1252.5 2070C1703.99 2070 2070 1703.99 2070 1252.5C2070 801.007 1703.99 435 1252.5 435C801.007 435 435 801.007 435 1252.5C435 1703.99 801.007 2070 1252.5 2070ZM1252.5 1609C1449.39 1609 1609 1449.39 1609 1252.5C1609 1055.61 1449.39 896 1252.5 896C1055.61 896 896 1055.61 896 1252.5C896 1449.39 1055.61 1609 1252.5 1609Z" fill="#D14D41"/>
<path fill-rule="evenodd" clip-rule="evenodd" d="M1937.11 1699.46C2021.14 1571.01 2070 1417.46 2070 1252.5C2070 801.174 1704.26 435.27 1253 435V896C1449.66 896.27 1609 1055.78 1609 1252.5C1609 1324.38 1587.73 1391.29 1551.13 1447.28L1937.11 1699.46Z" fill="#D0A215"/>
<path fill-rule="evenodd" clip-rule="evenodd" d="M1936.89 1699.79C1790.89 1922.73 1538.89 2070 1252.5 2070C1124.14 2070 1002.7 2040.42 894.604 1987.7L1096.65 1573.22C1143.74 1596.14 1196.62 1609 1252.5 1609C1377.45 1609 1487.38 1544.72 1551.04 1447.43L1936.89 1699.79Z" fill="#879A39"/>
<path fill-rule="evenodd" clip-rule="evenodd" d="M894.605 1987.7L1096.65 1573.22C977.863 1515.39 896 1393.51 896 1252.5C896 1232.87 897.587 1213.6 900.641 1194.83L445.625 1120.36C438.634 1163.37 435 1207.51 435 1252.5C435 1575.64 622.482 1854.98 894.605 1987.7Z" fill="#4385BE"/>
<path d="M650.04 2091.47C516.237 2091.47 418.616 2088.06 357.176 2081.23C295.736 2074.41 251.363 2057.34 224.056 2030.03C196.749 2004.09 183.096 1961.77 183.096 1903.06C183.096 1867.56 187.192 1823.87 195.384 1771.98C203.576 1720.1 216.547 1649.1 234.296 1558.99C246.584 1497.55 252.728 1457.27 252.728 1438.16C252.728 1410.85 245.219 1389.69 230.2 1374.67C216.547 1359.65 192.653 1347.37 158.52 1337.81C125.752 1326.89 73.1867 1313.91 0.824005 1298.9V1077.71C73.1867 1064.06 125.752 1052.45 158.52 1042.9C192.653 1031.97 216.547 1019 230.2 1003.98C245.219 988.965 252.728 967.803 252.728 940.496C252.728 922.747 246.584 881.787 234.296 817.616C216.547 727.504 203.576 656.507 195.384 604.624C187.192 552.741 183.096 509.051 183.096 473.552C183.096 414.843 196.749 372.517 224.056 346.576C251.363 319.269 295.736 302.203 357.176 295.376C418.616 288.549 516.237 285.136 650.04 285.136V444.88C555.832 444.88 489.613 446.245 451.384 448.976C414.52 451.707 387.213 459.216 369.464 471.504C351.715 483.792 342.84 504.955 342.84 534.992C342.84 554.107 346.253 579.365 353.08 610.768C359.907 642.171 364.003 661.968 365.368 670.16L377.656 733.648C400.867 842.875 412.472 924.112 412.472 977.36C412.472 1023.78 404.28 1058.6 387.896 1081.81C371.512 1105.02 346.936 1122.09 314.168 1133.01C281.4 1143.93 230.883 1154.85 162.616 1165.78V1210.83C230.883 1221.75 281.4 1232.68 314.168 1243.6C346.936 1254.52 371.512 1271.59 387.896 1294.8C404.28 1318.01 412.472 1352.83 412.472 1399.25C412.472 1452.5 400.867 1533.73 377.656 1642.96L365.368 1706.45C364.003 1714.64 359.907 1734.44 353.08 1765.84C346.253 1797.24 342.84 1822.5 342.84 1841.62C342.84 1871.65 351.715 1892.82 369.464 1905.1C387.213 1917.39 414.52 1924.9 451.384 1927.63C489.613 1930.36 555.832 1931.73 650.04 1931.73V2091.47Z" fill="#8B7EC8"/>
<path d="M1855.96 2091.47C1989.76 2091.47 2087.38 2088.06 2148.82 2081.23C2210.26 2074.41 2254.64 2057.34 2281.94 2030.03C2309.25 2004.09 2322.9 1961.77 2322.9 1903.06C2322.9 1867.56 2318.81 1823.87 2310.62 1771.98C2302.42 1720.1 2289.45 1649.1 2271.7 1558.99C2259.42 1497.55 2253.27 1457.27 2253.27 1438.16C2253.27 1410.85 2260.78 1389.69 2275.8 1374.67C2289.45 1359.65 2313.35 1347.37 2347.48 1337.81C2380.25 1326.89 2432.81 1313.91 2505.18 1298.9V1077.71C2432.81 1064.06 2380.25 1052.45 2347.48 1042.9C2313.35 1031.97 2289.45 1019 2275.8 1003.98C2260.78 988.965 2253.27 967.803 2253.27 940.496C2253.27 922.747 2259.42 881.787 2271.7 817.616C2289.45 727.504 2302.42 656.507 2310.62 604.624C2318.81 552.741 2322.9 509.051 2322.9 473.552C2322.9 414.843 2309.25 372.517 2281.94 346.576C2254.64 319.269 2210.26 302.203 2148.82 295.376C2087.38 288.549 1989.76 285.136 1855.96 285.136V444.88C1950.17 444.88 2016.39 446.245 2054.62 448.976C2091.48 451.707 2118.79 459.216 2136.54 471.504C2154.29 483.792 2163.16 504.955 2163.16 534.992C2163.16 554.107 2159.75 579.365 2152.92 610.768C2146.09 642.171 2142 661.968 2140.63 670.16L2128.34 733.648C2105.13 842.875 2093.53 924.112 2093.53 977.36C2093.53 1023.78 2101.72 1058.6 2118.1 1081.81C2134.49 1105.02 2159.06 1122.09 2191.83 1133.01C2224.6 1143.93 2275.12 1154.85 2343.38 1165.78V1210.83C2275.12 1221.75 2224.6 1232.68 2191.83 1243.6C2159.06 1254.52 2134.49 1271.59 2118.1 1294.8C2101.72 1318.01 2093.53 1352.83 2093.53 1399.25C2093.53 1452.5 2105.13 1533.73 2128.34 1642.96L2140.63 1706.45C2142 1714.64 2146.09 1734.44 2152.92 1765.84C2159.75 1797.24 2163.16 1822.5 2163.16 1841.62C2163.16 1871.65 2154.29 1892.82 2136.54 1905.1C2118.79 1917.39 2091.48 1924.9 2054.62 1927.63C2016.39 1930.36 1950.17 1931.73 1855.96 1931.73V2091.47Z" fill="#8B7EC8"/>
</svg>
